<svg height="512pt" viewBox="-94 0 512 512" width="512pt" xmlns="http://www.w3.org/2000/svg"><path d="m204.925781 366.203125h-86.4375v-136.332031h43.21875c37.371094 0 67.773438-30.457032 67.773438-67.890625 0-37.4375-30.402344-67.890625-67.773438-67.890625-37.367187 0-67.773437 30.453125-67.773437 67.890625h-86.433594c0-85.179688 69.175781-154.480469 154.207031-154.480469s154.207031 69.300781 154.207031 154.480469c0 70.15625-46.929687 129.539062-110.988281 148.304687zm0 0" fill="#72869e"/><path d="m118.488281 418.066406h86.4375v86.433594h-86.4375zm0 0" fill="#72869e"/><g fill="#536275"><path d="m176.707031 8.234375c-4.9375-.480469-9.9375-.734375-15-.734375-85.027343 0-154.207031 69.300781-154.207031 154.480469h30c0-80.113281 61.191406-146.167969 139.207031-153.746094zm0 0"/><path d="m118.488281 229.871094h30v136.332031h-30zm0 0"/><path d="m148.492188 504.5h-30v-86.433594h30zm0 0"/></g><path d="m181.707031 338.703125h-15v-15h15zm-25 0h-15v-15h15zm0 0" fill="#fff"/><path d="m161.707031 0c-89.164062 0-161.707031 72.664062-161.707031 161.980469v7.5h101.4375v-7.5c0-33.300781 27.035156-60.390625 60.269531-60.390625s60.273438 27.089844 60.273438 60.390625-27.039063 60.390625-60.273438 60.390625h-50.71875v33.628906h15v-18.628906h35.71875c41.503907 0 75.273438-33.820313 75.273438-75.390625 0-41.570313-33.769531-75.390625-75.273438-75.390625-38.976562 0-71.132812 29.824218-74.902343 67.890625h-71.617188c3.910156-77.578125 68.132812-139.480469 146.519531-139.480469 80.894531 0 146.707031 65.933594 146.707031 146.980469 0 64.867187-43.421874 122.894531-105.597656 141.109375l-5.390625 1.578125v54.035156h-71.4375v-82.703125h-15v97.703125h101.4375v-57.90625c30.714844-10.210937 58.246094-29.890625 77.984375-55.855469 21.589844-28.394531 33.003906-62.269531 33.003906-97.960937 0-89.316407-72.542968-161.980469-161.707031-161.980469zm0 0"/><path d="m110.988281 512h101.4375v-28.144531h-15v13.144531h-71.4375v-71.433594h71.4375v38.289063h15v-53.289063h-101.4375zm0 0"/><path d="m293.414062 161.980469c0-72.773438-59.082031-131.980469-131.707031-131.980469v15c64.351563 0 116.707031 52.476562 116.707031 116.980469zm0 0"/></svg>